<svg width="82" height="19" viewBox="0 0 82 19" fill="none" xmlns="http://www.w3.org/2000/svg">
<path d="M8.21875 11.9297L9.32812 6.54688H11.5078L9.35156 15H7.46094L5.85938 9.67969L4.25781 15H2.375L0.21875 6.54688H2.39844L3.5 11.9219L5.04688 6.54688H6.67969L8.21875 11.9297ZM14.8359 7.46875C15.4349 6.75 16.1875 6.39062 17.0938 6.39062C18.9271 6.39062 19.8568 7.45573 19.8828 9.58594V15H17.625V9.64844C17.625 9.16406 17.5208 8.80729 17.3125 8.57812C17.1042 8.34375 16.7578 8.22656 16.2734 8.22656C15.612 8.22656 15.1328 8.48177 14.8359 8.99219V15H12.5781V3H14.8359V7.46875ZM26.4844 15C26.3802 14.7969 26.3047 14.5443 26.2578 14.2422C25.7109 14.8516 25 15.1562 24.125 15.1562C23.2969 15.1562 22.6094 14.9167 22.0625 14.4375C21.5208 13.9583 21.25 13.3542 21.25 12.625C21.25 11.7292 21.5807 11.0417 22.2422 10.5625C22.9089 10.0833 23.8698 9.84115 25.125 9.83594H26.1641V9.35156C26.1641 8.96094 26.0625 8.64844 25.8594 8.41406C25.6615 8.17969 25.3464 8.0625 24.9141 8.0625C24.5339 8.0625 24.2344 8.15365 24.0156 8.33594C23.8021 8.51823 23.6953 8.76823 23.6953 9.08594H21.4375C21.4375 8.59635 21.5885 8.14323 21.8906 7.72656C22.1927 7.3099 22.6198 6.98438 23.1719 6.75C23.724 6.51042 24.3438 6.39062 25.0312 6.39062C26.0729 6.39062 26.8984 6.65365 27.5078 7.17969C28.1224 7.70052 28.4297 8.4349 28.4297 9.38281V13.0469C28.4349 13.849 28.5469 14.4557 28.7656 14.8672V15H26.4844ZM24.6172 13.4297C24.9505 13.4297 25.2578 13.3568 25.5391 13.2109C25.8203 13.0599 26.0286 12.8594 26.1641 12.6094V11.1562H25.3203C24.1901 11.1562 23.5885 11.5469 23.5156 12.3281L23.5078 12.4609C23.5078 12.7422 23.6068 12.974 23.8047 13.1562C24.0026 13.3385 24.2734 13.4297 24.6172 13.4297ZM32.8672 4.46875V6.54688H34.3125V8.20312H32.8672V12.4219C32.8672 12.7344 32.9271 12.9583 33.0469 13.0938C33.1667 13.2292 33.3958 13.2969 33.7344 13.2969C33.9844 13.2969 34.2057 13.2786 34.3984 13.2422V14.9531C33.9557 15.0885 33.5 15.1562 33.0312 15.1562C31.4479 15.1562 30.6406 14.3568 30.6094 12.7578V8.20312H29.375V6.54688H30.6094V4.46875H32.8672ZM41.8281 16.7656H34.7109V15H41.8281V16.7656ZM45.4141 4.46875V6.54688H46.8594V8.20312H45.4141V12.4219C45.4141 12.7344 45.474 12.9583 45.5938 13.0938C45.7135 13.2292 45.9427 13.2969 46.2812 13.2969C46.5312 13.2969 46.7526 13.2786 46.9453 13.2422V14.9531C46.5026 15.0885 46.0469 15.1562 45.5781 15.1562C43.9948 15.1562 43.1875 14.3568 43.1562 12.7578V8.20312H41.9219V6.54688H43.1562V4.46875H45.4141ZM47.5312 10.6953C47.5312 9.85677 47.6927 9.10938 48.0156 8.45312C48.3385 7.79688 48.8021 7.28906 49.4062 6.92969C50.0156 6.57031 50.7214 6.39062 51.5234 6.39062C52.6641 6.39062 53.5938 6.73958 54.3125 7.4375C55.0365 8.13542 55.4401 9.08333 55.5234 10.2812L55.5391 10.8594C55.5391 12.1562 55.1771 13.1979 54.4531 13.9844C53.7292 14.7656 52.7578 15.1562 51.5391 15.1562C50.3203 15.1562 49.3464 14.7656 48.6172 13.9844C47.8932 13.2031 47.5312 12.1406 47.5312 10.7969V10.6953ZM49.7891 10.8594C49.7891 11.6615 49.9401 12.276 50.2422 12.7031C50.5443 13.125 50.9766 13.3359 51.5391 13.3359C52.0859 13.3359 52.513 13.1276 52.8203 12.7109C53.1276 12.2891 53.2812 11.6172 53.2812 10.6953C53.2812 9.90885 53.1276 9.29948 52.8203 8.86719C52.513 8.4349 52.0807 8.21875 51.5234 8.21875C50.9714 8.21875 50.5443 8.4349 50.2422 8.86719C49.9401 9.29427 49.7891 9.95833 49.7891 10.8594ZM63.1875 16.7656H56.0703V15H63.1875V16.7656ZM63.7188 10.7109C63.7188 9.39323 64.013 8.34375 64.6016 7.5625C65.1953 6.78125 66.0052 6.39062 67.0312 6.39062C67.8542 6.39062 68.5339 6.69792 69.0703 7.3125V3H71.3359V15H69.2969L69.1875 14.1016C68.625 14.8047 67.901 15.1562 67.0156 15.1562C66.0208 15.1562 65.2214 14.7656 64.6172 13.9844C64.0182 13.1979 63.7188 12.1068 63.7188 10.7109ZM65.9766 10.875C65.9766 11.6667 66.1146 12.2734 66.3906 12.6953C66.6667 13.1172 67.0677 13.3281 67.5938 13.3281C68.2917 13.3281 68.7839 13.0339 69.0703 12.4453V9.10938C68.7891 8.52083 68.3021 8.22656 67.6094 8.22656C66.5208 8.22656 65.9766 9.10938 65.9766 10.875Z" fill="#4948C0"/>
<path d="M79.4432 9.375L76.8182 12L75.625 10.8068" stroke="#4948C0" stroke-linecap="round" stroke-linejoin="round"/>
<circle cx="77.5" cy="10.5" r="4" stroke="#4948C0"/>
</svg>
